Coordinates
version=1
nRows=23
nColumns=38
inDegrees=no

Units are S.I. units (second, meters, Newtons, ...)
If the header above contains a line with 'inDegrees', this indicates whether rotational values are in degrees (yes) or radians (no).

endheader
time	pelvis_tilt	pelvis_list	pelvis_rotation	pelvis_tx	pelvis_ty	pelvis_tz	hip_flexion_r	hip_adduction_r	hip_rotation_r	knee_angle_r	ankle_angle_r	subtalar_angle_r	mtp_angle_r	hip_flexion_l	hip_adduction_l	hip_rotation_l	knee_angle_l	ankle_angle_l	subtalar_angle_l	mtp_angle_l	lumbar_extension	lumbar_bending	lumbar_rotation	arm_flex_r	arm_add_r	arm_rot_r	elbow_flex_r	pro_sup_r	wrist_flex_r	wrist_dev_r	arm_flex_l	arm_add_l	arm_rot_l	elbow_flex_l	pro_sup_l	wrist_flex_l	wrist_dev_l
1.62	2.34133	1.51241	-0.692286	0.697838	0.814045	0.943374	-0.210663	0.058575	-0.169861	0.29154	-0.104799	0	0	0.366872	-0.0957697	-0.241185	0.411328	-0.324033	0	0	-0.110115	0.0279544	0.0312765	0.0797374	-0.288119	0.213751	0.792366	1.5708	0	0	-0.104221	-0.272386	0.32697	0.706242	1.5708	0	0
1.63	2.16844	1.51596	-0.513925	0.696405	0.822667	0.940667	-0.207752	0.0616348	-0.172871	0.299013	-0.0956986	0	0	0.366754	-0.0843786	-0.214345	0.339975	-0.327171	0	0	-0.10077	0.0315909	0.0271927	0.0826675	-0.288309	0.214758	0.794335	1.5708	0	0	-0.105444	-0.270151	0.324392	0.704429	1.5708	0	0
1.64	2.00971	1.51714	-0.350385	0.694968	0.83149	0.938097	-0.20519	0.0639047	-0.17782	0.309695	-0.0877771	0	0	0.367718	-0.0769772	-0.196914	0.284015	-0.327164	0	0	-0.0931265	0.0350013	0.0238646	0.0848869	-0.287985	0.214765	0.796068	1.5708	0	0	-0.106877	-0.268275	0.322157	0.70346	1.5708	0	0
1.65	1.87285	1.51729	-0.209335	0.693589	0.840459	0.935726	-0.202484	0.0649456	-0.183822	0.323585	-0.0798675	0	0	0.367107	-0.0704249	-0.179856	0.234968	-0.326764	0	0	-0.0866839	0.0374224	0.0212556	0.0872806	-0.287429	0.215716	0.796146	1.5708	0	0	-0.107876	-0.266551	0.320298	0.702553	1.5708	0	0
1.66	1.76326	1.51715	-0.0968601	0.692347	0.849545	0.933611	-0.200976	0.0651422	-0.187094	0.337153	-0.0729538	0	0	0.364671	-0.0646239	-0.163644	0.193874	-0.326781	0	0	-0.0818795	0.038543	0.0202415	0.089558	-0.285944	0.215931	0.794782	1.5708	0	0	-0.108134	-0.265258	0.319336	0.701423	1.5708	0	0
1.67	1.6971	1.5169	-0.0291478	0.691192	0.858881	0.931872	-0.202176	0.0646203	-0.188485	0.349484	-0.0688177	0	0	0.360871	-0.0602628	-0.152082	0.166751	-0.326084	0	0	-0.0795908	0.0387711	0.020838	0.0917293	-0.284383	0.216593	0.792327	1.5708	0	0	-0.107966	-0.26437	0.319434	0.700059	1.5708	0	0
1.68	1.67237	1.51693	-0.00414552	0.690144	0.868461	0.930511	-0.206237	0.063557	-0.187922	0.360086	-0.0669637	0	0	0.357396	-0.0574013	-0.146962	0.157914	-0.32516	0	0	-0.0797504	0.0382125	0.0229244	0.0933699	-0.28213	0.216583	0.789122	1.5708	0	0	-0.107441	-0.263984	0.320427	0.698717	1.5708	0	0
1.69	1.68503	1.51753	-0.0172665	0.689133	0.878259	0.929472	-0.211726	0.061187	-0.188017	0.372571	-0.066232	0	0	0.354873	-0.0554571	-0.14694	0.167263	-0.324468	0	0	-0.0820669	0.0367936	0.0258999	0.0942989	-0.279266	0.215764	0.785501	1.5708	0	0	-0.106797	-0.26402	0.321549	0.69781	1.5708	0	0
1.7	1.71818	1.51869	-0.0513282	0.688078	0.888282	0.928658	-0.218183	0.0576769	-0.187658	0.385633	-0.0667358	0	0	0.353558	-0.0540128	-0.150919	0.191774	-0.322801	0	0	-0.0851926	0.0345876	0.0294201	0.0944319	-0.27683	0.215697	0.78163	1.5708	0	0	-0.106312	-0.264418	0.322985	0.697217	1.5708	0	0
1.71	1.76433	1.52023	-0.0985291	0.68693	0.898593	0.928063	-0.225498	0.0532107	-0.186862	0.398207	-0.0693908	0	0	0.351273	-0.0521894	-0.155877	0.221769	-0.318701	0	0	-0.0882564	0.0318538	0.0331865	0.093262	-0.2743	0.215484	0.777579	1.5708	0	0	-0.106055	-0.264879	0.324932	0.696499	1.5708	0	0
1.72	1.80896	1.52232	-0.144274	0.685621	0.909182	0.927612	-0.233632	0.0487765	-0.18364	0.407519	-0.074376	0	0	0.348335	-0.0492245	-0.162462	0.250044	-0.312214	0	0	-0.090413	0.0285104	0.0370403	0.0905722	-0.271728	0.215067	0.773456	1.5708	0	0	-0.106182	-0.265373	0.327233	0.695477	1.5708	0	0
1.73	1.85468	1.52507	-0.19118	0.684191	0.919987	0.927351	-0.241496	0.0437747	-0.179121	0.416228	-0.0809192	0	0	0.343962	-0.0444027	-0.167956	0.269136	-0.309693	0	0	-0.091794	0.0243474	0.0409424	0.0868398	-0.26903	0.21482	0.768752	1.5708	0	0	-0.106433	-0.265651	0.329313	0.693845	1.5708	0	0
1.74	1.89866	1.52855	-0.236278	0.682739	0.930885	0.927331	-0.247371	0.0377133	-0.174682	0.427808	-0.0900478	0	0	0.338852	-0.0383379	-0.172663	0.279576	-0.315411	0	0	-0.092284	0.0191738	0.0448408	0.0829204	-0.266395	0.215879	0.762647	1.5708	0	0	-0.106378	-0.266216	0.331918	0.69131	1.5708	0	0
1.75	1.91622	1.53278	-0.254511	0.681219	0.941849	0.927487	-0.24997	0.030994	-0.17033	0.442491	-0.100218	0	0	0.333499	-0.0316209	-0.175286	0.283726	-0.329398	0	0	-0.0908027	0.0133677	0.0482375	0.0784452	-0.262938	0.216526	0.755059	1.5708	0	0	-0.106099	-0.26669	0.334565	0.687413	1.5708	0	0
1.76	1.91163	1.53728	-0.250444	0.679641	0.952906	0.927785	-0.250116	0.0240901	-0.165623	0.459519	-0.111881	0	0	0.327726	-0.0252225	-0.176956	0.28618	-0.345704	0	0	-0.0880131	0.00750256	0.0514734	0.0728133	-0.258825	0.216037	0.747192	1.5708	0	0	-0.10586	-0.26708	0.336998	0.682951	1.5708	0	0
1.77	1.89361	1.5414	-0.232906	0.677936	0.964089	0.928208	-0.249128	0.0175633	-0.159405	0.477701	-0.125292	0	0	0.32193	-0.0198675	-0.1775	0.290208	-0.358526	0	0	-0.0846036	0.00234019	0.0545599	0.0660731	-0.25516	0.215343	0.740174	1.5708	0	0	-0.105925	-0.267223	0.339044	0.678555	1.5708	0	0
1.78	1.86118	1.54479	-0.200693	0.676128	0.975333	0.928739	-0.246044	0.0111941	-0.153228	0.499679	-0.140738	0	0	0.317677	-0.016487	-0.178245	0.299338	-0.366422	0	0	-0.0808369	-0.00183636	0.0572582	0.058557	-0.252202	0.215159	0.734141	1.5708	0	0	-0.106306	-0.267202	0.340636	0.674784	1.5708	0	0
1.79	1.81221	1.54729	-0.151096	0.674181	0.986626	0.929418	-0.240781	0.00506549	-0.148401	0.525444	-0.158774	0	0	0.315363	-0.0151083	-0.180625	0.314315	-0.371273	0	0	-0.0766042	-0.00482206	0.0590382	0.0504034	-0.250131	0.216328	0.728619	1.5708	0	0	-0.106863	-0.266848	0.341725	0.670945	1.5708	0	0
1.8	1.75446	1.54921	-0.0909584	0.671883	0.997998	0.930331	-0.23444	-0.000951304	-0.145567	0.552723	-0.180331	0	0	0.31288	-0.0137119	-0.181955	0.33009	-0.375452	0	0	-0.0719301	-0.00677742	0.0588421	0.0419221	-0.248977	0.219221	0.722955	1.5708	0	0	-0.107069	-0.265661	0.342757	0.665518	1.5708	0	0
1.81	1.73931	1.55068	-0.0721115	0.669434	1.00937	0.931593	-0.227472	-0.00741524	-0.145358	0.582521	-0.206204	0	0	0.3074	-0.0117785	-0.180749	0.342173	-0.379618	0	0	-0.0683099	-0.00827204	0.056901	0.0338375	-0.247464	0.22252	0.716466	1.5708	0	0	-0.106617	-0.264569	0.344604	0.65924	1.5708	0	0
1.82	1.76708	1.55175	-0.0958493	0.667043	1.02054	0.933159	-0.2189	-0.0140256	-0.144436	0.615356	-0.23816	0	0	0.299025	-0.0095083	-0.177395	0.350183	-0.381307	0	0	-0.0659996	-0.00951177	0.0541704	0.0269476	-0.245692	0.226963	0.708976	1.5708	0	0	-0.104993	-0.264083	0.348417	0.652733	1.5708	0	0
1.83	1.83777	1.55246	-0.162351	0.664682	1.03152	0.9349	-0.207815	-0.0211235	-0.144008	0.652557	-0.271357	0	0	0.288428	-0.00695998	-0.173835	0.355934	-0.37777	0	0	-0.0648065	-0.0104326	0.050892	0.0206258	-0.243842	0.231349	0.701898	1.5708	0	0	-0.10288	-0.263915	0.352807	0.646836	1.5708	0	0
1.84	1.90692	1.55323	-0.227111	0.662281	1.04237	0.936647	-0.193043	-0.029291	-0.145391	0.693501	-0.307899	0	0	0.276976	-0.00367738	-0.17075	0.360081	-0.371907	0	0	-0.0635063	-0.0113415	0.0470508	0.0143288	-0.242385	0.236326	0.695814	1.5708	0	0	-0.100529	-0.263977	0.35766	0.641688	1.5708	0	0
